# xmcd
#
# Track frame offsets: 
#        150
#        14050
#        27825
#        41337
#        53300
#        69987
#        82250
#        95112
#        106775
#        124425
#        140137
#        155600
#        167850
#        180337
#        191862
#        209475
#        224125
#
# Disc length: 3175 seconds
#
# Revision: 2
# Processed by: cddbd v1.5.2PL0 Copyright (c) Steve Scherf et al.
# Submitted via: ExactAudioCopyFreeDBPlugin 1.0
#
DISCID=010c6511
DTITLE=Johanna von Koczian - Ihre größten Erfolge
DYEAR=1992
DGENRE=Schlager
TTITLE0=Das bißchen Haushalt... sagt mein Mann
TTITLE1=Keinen Pfennig
TTITLE2=Ich hab' so lang gesucht nach Dir
TTITLE3=Wunderbar, wie schön der Abend war
TTITLE4=Carolina soll nicht weinen
TTITLE5=Sing ein Lied
TTITLE6=Manchmal, da kann ich's (Ich wär so gern mit den Tieren verwan
TTITLE6=dt)
TTITLE7=Forelle blau
TTITLE8=Jetzt sind wir total auf den Hund gekommen (Das Lied vom Hund)
TTITLE9=Rat mal, wer zum Essen kommt
TTITLE10=Eins zwei drei, im Sauseschritt
TTITLE11=So wie's früher war
TTITLE12=Mein Vater
TTITLE13=Urlaub ohne dich
TTITLE14=Das ist der schönste Moment
TTITLE15=Die Tage vergehen
TTITLE16=Mein Zuhause
EXTD=
EXTT0=
EXTT1=
EXTT2=
EXTT3=
EXTT4=
EXTT5=
EXTT6=
EXTT7=
EXTT8=
EXTT9=
EXTT10=
EXTT11=
EXTT12=
EXTT13=
EXTT14=
EXTT15=
EXTT16=
PLAYORDER=
